<svg aria-hidden="true" style="position:absolute;width:0;height:0" xmlns="http://www.w3.org/2000/svg" overflow="hidden"><defs><symbol id="add-user" viewBox="0 0 34 32"><path fill="none" stroke="var(--color1, #fff)" stroke-linejoin="round" stroke-linecap="round" stroke-width="2.56" d="M8 21.336c-3.745.493-6.4 1.728-6.4 4.376 0 3.723 5.219 4.688 11.403 4.688 6.15 0 11.403-.931 11.403-4.654 0-2.066-1.607-3.283-4.094-3.956-7.309-1.98-11.176-5.572-13.346-8.743A7.3 7.3 0 015.694 8.91a7.283 7.283 0 017.309-7.309 7.282 7.282 0 017.309 7.309 7.284 7.284 0 01-3.512 6.257M27.926 11.071v6.416M31.2 14.278h-6.544"/></symbol><symbol id="arrow-back" viewBox="0 0 37 32"><path fill="none" stroke="var(--color1, #fff)" stroke-linejoin="round" stroke-linecap="round" stroke-miterlimit="10" stroke-width="3.657" d="M15.833 10.445V2.286L2.286 15.005l13.619 12.719v-7.599c3.603 0 6.63.08 9.512 1.68 3.675 2.08 6.341 5.44 7.855 7.679.36.48 1.081.16 1.009-.48-.707-4.589-2.975-12.825-9.995-16.587a15.687 15.687 0 00-2-.896"/></symbol><symbol id="attach" viewBox="0 0 33 32"><path fill="none" stroke="var(--color1, #fff)" stroke-linejoin="round" stroke-linecap="round" stroke-miterlimit="10" stroke-width="2.048" d="M14.946 26.07l11.951-11.951c2.144-2.144 2.016-5.686-.194-7.896s-5.792-2.298-7.896-.194L5.109 19.727c-1.39 1.39-1.332 3.75.128 5.21"/><path fill="none" stroke="var(--color1, #fff)" stroke-linejoin="round" stroke-linecap="round" stroke-miterlimit="10" stroke-width="2.048" d="M12.671 17.145l5.763-5.763c.904-.905 2.358-.95 3.208-.099s.805 2.304-.099 3.208l-6.047 6.048M15.453 20.583l-4.87 4.871c-1.332 1.332-3.539 1.289-4.87-.043l-.602-.602"/></symbol><symbol id="camera" viewBox="0 0 35 32"><path fill="none" stroke="var(--color1, #fff)" stroke-linejoin="round" stroke-linecap="round" stroke-width="2.56" d="M2.8 23.453a5.78 5.78 0 005.781 5.779h18.04a5.78 5.78 0 005.779-5.779v-9.498a5.779 5.779 0 00-5.779-5.779 1.538 1.538 0 01-1.392-.882c-.459-.973-1.043-2.216-1.389-2.893-.51-1.006-1.338-1.592-2.483-1.6-.019-.002-7.494-.002-7.514 0-1.146.008-1.971.594-2.483 1.6-.344.677-.928 1.92-1.387 2.893a1.54 1.54 0 01-1.392.882c-3.194 0-5.781 2.587-5.781 5.779S5.329 18.396 8 18.4c2.676.004 4-2.4 5.215-4.445a5.11 5.11 0 014.39-2.511c2.803.003 5.085 2.293 5.08 5.102-.005 2.798-2.288 5.083-5.083 5.086"/></symbol><symbol id="check" viewBox="0 0 43 32"><path fill="none" stroke="var(--color1, #fff)" stroke-linejoin="round" stroke-linecap="round" stroke-width="4.267" d="M2.667 15.595l12.199 12.206L40 2.667"/></symbol><symbol id="close" viewBox="0 0 32 32"><path fill="none" stroke="var(--color1, #fff)" stroke-linejoin="round" stroke-linecap="round" stroke-width="3.657" d="M29.714 29.714L2.285 2.285M2.288 29.714L29.717 2.285"/></symbol><symbol id="down-arrow" viewBox="0 0 51 32"><path fill="none" stroke="var(--color1, #fff)" stroke-linejoin="round" stroke-linecap="round" stroke-width="5.12" d="M48 4.8L25.6 27.2 3.2 4.8"/></symbol><symbol id="edit" viewBox="0 0 32 32"><path fill="none" stroke="var(--color1, #fff)" stroke-linejoin="round" stroke-linecap="round" stroke-width="3.657" d="M18.914 29.54h10.932M17.466 3.924c1.263-1.61 3.305-1.526 4.917-.262l2.383 1.869c1.611 1.263 2.182 3.223.919 4.836l-14.21 18.129a2.54 2.54 0 01-1.971.974l-5.481.07-1.241-5.34c-.175-.749 0-1.538.475-2.146l14.21-18.129zM14.804 7.319l8.218 6.442"/></symbol><symbol id="info-circle" viewBox="0 0 32 32"><path fill="none" stroke="var(--color1, #fff)" stroke-linejoin="round" stroke-linecap="round" stroke-width="3.2" d="M16 2c7.733 0 14 6.269 14 14s-6.267 14-14 14C8.269 30 2 23.731 2 16S8.269 2 16 2zM15.992 10.307v6.628M15.992 21.694h.015"/></symbol><symbol id="little-close" viewBox="0 0 32 32"><path fill="none" stroke="var(--color1, #fff)" stroke-linejoin="round" stroke-linecap="round" stroke-width="8.533" d="M26.666 26.666L5.334 5.334M5.335 26.666L26.667 5.334"/></symbol><symbol id="mail" viewBox="0 0 35 32"><path fill="none" stroke="var(--color1, #fff)" stroke-linejoin="round" stroke-linecap="round" stroke-width="2.56" d="M1.6 17.271v4.045c0 4.67 3.149 8.471 7.821 8.471h15.085c2.175-.024 4.245-.944 5.728-2.544s2.25-3.742 2.121-5.926V10.872c.128-2.184-.638-4.326-2.121-5.926s-3.553-2.52-5.728-2.544H6.647c-3.937 0-5.671 4.961-2.592 7.414L7.927 12.9l6.883 5.495a3.56 3.56 0 004.394 0l6.825-5.495"/></symbol><symbol id="mic" viewBox="0 0 26 32"><path fill="none" stroke="var(--color1, #fff)" stroke-linejoin="round" stroke-linecap="round" stroke-width="2.438" d="M24.088 13.962c0 6.232-5.05 11.282-11.282 11.282S1.524 20.194 1.524 13.962c0-1.988.821-3.296 2.93-3.296 2.362 0 2.582 2.285 2.582 3.368a5.577 5.577 0 005.577 5.577h.385a5.576 5.576 0 005.577-5.577V7.1a5.578 5.578 0 00-5.577-5.577h-.385A5.578 5.578 0 007.036 7.1M12.806 30.7v-4.282"/></symbol><symbol id="notify" viewBox="0 0 29 32"><path fill="none" stroke="var(--color1, #fff)" stroke-linejoin="round" stroke-linecap="round" stroke-width="2.327" d="M17.989 28.875a4.238 4.238 0 01-.762.734 4.491 4.491 0 01-6.237-.734c-.408-.512-.807-1.239-.807-1.966 0-2.853 2.909-2.495 2.909-2.495a65.565 65.565 0 008.44-.358 6.555 6.555 0 004.149-1.994 5.19 5.19 0 001.228-3.476v-.305a5.095 5.095 0 00-.875-2.631 7.21 7.21 0 01-1.736-3.379c-.071-.969.014-1.953-.071-2.922-.452-4.667-5.066-7.894-9.624-7.894h-.113c-4.558 0-9.173 3.227-9.61 7.894-.085.969-.085 1.953-.085 2.922a7.078 7.078 0 01-1.736 3.365 5.243 5.243 0 00-.875 2.645v.319a5.238 5.238 0 001.214 3.462 6.582 6.582 0 002.422 1.594"/></symbol><symbol id="question" viewBox="0 0 17 32"><path fill="var(--color1, #fff)" d="M1.77 8.435c-.964 0-1.748-.811-1.559-1.756.339-1.695 1.058-3.132 2.159-4.31C3.845.789 5.902-.001 8.539-.001c2.441 0 4.432.746 5.973 2.239 1.554 1.493 2.33 3.37 2.33 5.63 0 3.174-1.364 5.674-4.093 7.5-1.227.812-2.069 1.58-2.526 2.304-.444.725-.666 1.667-.666 2.826 0 .78-.633 1.413-1.413 1.413h-.301a1.714 1.714 0 01-1.714-1.714v-.286c-.013-1.42.294-2.652.92-3.696.64-1.043 1.639-2.014 2.996-2.913 1.149-.783 1.958-1.565 2.428-2.348.483-.783.725-1.746.725-2.891 0-1.362-.444-2.478-1.332-3.348-.875-.884-2.03-1.326-3.466-1.326-1.475 0-2.663.449-3.564 1.348-.57.577-.978 1.29-1.225 2.142-.248.853-.954 1.554-1.842 1.554zm8.277 22.717c-.496.565-1.142.848-1.939.848s-1.449-.283-1.958-.848c-.509-.565-.764-1.29-.764-2.174s.255-1.609.764-2.174c.509-.58 1.162-.87 1.958-.87s1.443.283 1.939.848c.509.565.764 1.297.764 2.196 0 .884-.255 1.609-.764 2.174z"/></symbol><symbol id="send" viewBox="0 0 32 32"><path fill="none" stroke="var(--color1, #fff)" stroke-linejoin="round" stroke-linecap="round" stroke-width="2.56" d="M22.169 9.794l-9.062 9.123-10.61-6.53c-1.39-.856-1.108-2.967.458-3.422l25.049-7.289c1.424-.412 2.741.923 2.315 2.354l-7.432 25.023c-.466 1.566-2.553 1.837-3.397.439l-6.383-10.576"/></symbol><symbol id="settings" viewBox="0 0 29 32"><path fill="none" stroke="var(--color1, #fff)" stroke-linejoin="round" stroke-linecap="round" stroke-width="2.327" d="M3.244 18.248a2.769 2.769 0 00-1.012 3.781l.919 1.584a2.784 2.784 0 003.794 1.079 2.757 2.757 0 013.781 1.012c.239.403.368.862.373 1.331a2.783 2.783 0 002.783 2.783h1.824a2.783 2.783 0 002.783-2.769c-.003-.739.289-1.449.811-1.972s1.232-.815 1.971-.811a2.83 2.83 0 011.331.373 2.781 2.781 0 003.794-1.012l.959-1.598a2.77 2.77 0 00-1.012-3.795 2.772 2.772 0 01-1.012-3.795 2.73 2.73 0 011.012-1.012 2.782 2.782 0 001.012-3.781v-.013l-.905-1.571a2.782 2.782 0 00-3.794-1.025 2.77 2.77 0 01-3.795-.986 2.668 2.668 0 01-.373-1.331 2.78 2.78 0 00-2.782-2.862h-1.824a2.77 2.77 0 00-2.769 2.783A2.783 2.783 0 018.33 7.384a2.655 2.655 0 01-1.331-.373 2.782 2.782 0 00-3.794 1.025l-.972 1.598c-.765 1.328-.313 3.024 1.012 3.794s2.698.223 3.755-.834c1.729-1.729 4.738 0 4.114 2.191a3.834 3.834 0 104.887-2.59"/></symbol><symbol id="smile" viewBox="0 0 32 32"><path fill="none" stroke="var(--color1, #fff)" stroke-linecap="round" stroke-width="2.327" d="M28.6 23.273A14.475 14.475 0 0030.546 16c0-8.033-6.512-14.545-14.545-14.545S1.456 7.967 1.456 16c0 8.033 6.512 14.545 14.545 14.545 2.927 0 5.652-.865 7.934-2.352"/><path fill="none" stroke="var(--color1, #fff)" stroke-linecap="round" stroke-width="2.327" d="M10.71 19.967c1.206 1.606 3.127 2.645 5.29 2.645s4.084-1.039 5.29-2.645M13.355 13.355a2.645 2.645 0 10-5.29 0M23.934 13.355a2.645 2.645 0 10-5.29 0"/></symbol><symbol id="star" viewBox="0 0 30 32"><path fill="none" stroke="var(--color1, #fff)" stroke-width="3.413" d="M12.292 5.007c1.121-2.124 4.163-2.124 5.283 0l1.89 3.581a2.987 2.987 0 002.132 1.549l3.99.69c2.366.409 3.306 3.302 1.633 5.024l-2.822 2.904a2.984 2.984 0 00-.814 2.507l.576 4.008c.342 2.377-2.119 4.165-4.274 3.105l-3.634-1.787a2.985 2.985 0 00-2.636 0l-3.634 1.787c-2.155 1.06-4.616-.728-4.274-3.105l.576-4.008a2.987 2.987 0 00-.814-2.507l-2.822-2.904c-1.674-1.722-.734-4.615 1.633-5.024l3.99-.69c.912-.158 1.7-.73 2.132-1.549l1.89-3.581z"/></symbol><symbol id="user" viewBox="0 0 27 32"><path fill="none" stroke="var(--color1, #fff)" stroke-linejoin="round" stroke-linecap="round" stroke-width="2.56" d="M8 21.336c-3.745.493-6.4 1.728-6.4 4.376 0 3.723 5.219 4.688 11.403 4.688 6.15 0 11.403-.931 11.403-4.654 0-2.066-1.607-3.283-4.094-3.956-7.309-1.98-11.176-5.572-13.346-8.743A7.3 7.3 0 015.694 8.91a7.283 7.283 0 017.309-7.309 7.282 7.282 0 017.309 7.309 7.284 7.284 0 01-3.512 6.257"/></symbol><symbol id="video-off" viewBox="0 0 39 32"><path fill="var(--color1, #fff)" d="M2.173 6.422c-.556 1.081-.84 2.321-.84 3.641v12.373c0 2.099.717 3.993 2.104 5.364s3.331 2.105 5.574 2.105h11.052c1.669 0 3.174-.405 4.408-1.177l-2.102-2.102c-.638.274-1.406.435-2.305.435H9.012c-1.615 0-2.799-.517-3.575-1.284s-1.259-1.896-1.259-3.34V10.064c0-.524.064-1.007.182-1.447L2.316 6.573a4.032 4.032 0 01-.143-.15zm23.378 11.317l2.391 2.391a14.882 14.882 0 015.274-9.207l1.311-1.073a.36.36 0 01.584.283V22.35a.36.36 0 01-.585.282l-.002-.002-1.701-1.392a1.422 1.422 0 00-2.262 1.51l1.725 1.725.436.357c2.083 1.71 5.234.227 5.234-2.481V10.132c0-2.702-3.148-4.196-5.235-2.481l-.001.001-1.305 1.069a17.722 17.722 0 00-5.863 9.018zM13.235 5.423l-2.844-2.844h9.674c3.606 0 6.358 1.917 7.328 4.994a1.423 1.423 0 01-2.713.855c-.553-1.753-2.094-2.997-4.592-3.005H13.236z"/><path fill="none" stroke="var(--color1, #fff)" stroke-linecap="round" stroke-width="2.844" d="M3.556 1.778L32 30.222"/></symbol><symbol id="video" viewBox="0 0 44 32"><path fill="none" stroke="var(--color1, #fff)" stroke-linejoin="round" stroke-linecap="round" stroke-width="3.2" d="M29.29 7c-.857-2.72-3.277-4.499-6.718-4.499H10.16c-4.362 0-7.06 2.836-7.06 6.82v13.92c0 3.986 2.698 6.802 7.038 6.802h12.434c4.344 0 7.06-2.816 7.06-6.802v0A18.34 18.34 0 0136.354 9.05l1.472-1.205c1.3-1.07 3.274-.14 3.274 1.554v13.744c0 1.696-1.974 2.622-3.274 1.554l-1.913-1.566"/></symbol><symbol id="voice-off" viewBox="0 0 26 32"><path fill="var(--color1, #fff)" d="M1.939 10.158a3.403 3.403 0 00-.686.641c-.719.883-.948 2.032-.948 3.163 0 6.494 4.95 11.83 11.283 12.442V30.7a1.22 1.22 0 002.438 0v-4.296a12.413 12.413 0 003.355-.805l-1.927-1.927a10.06 10.06 0 01-2.648.352c-5.558 0-10.063-4.505-10.063-10.063 0-.856.181-1.355.4-1.623.114-.14.292-.284.606-.371l-1.81-1.81zm3.879 3.879a6.796 6.796 0 006.794 6.794l-6.794-6.794zm15.553 5.21l1.762 1.762a12.447 12.447 0 002.173-7.047 1.22 1.22 0 00-2.438 0c0 1.938-.548 3.749-1.497 5.285zm-2.253-2.253l-1.893-1.893c.086-.341.131-.698.131-1.066V7.101a4.36 4.36 0 00-4.358-4.358h-.385a4.36 4.36 0 00-4.269 3.478L6.421 4.298A6.798 6.798 0 0112.613.306h.385a6.796 6.796 0 016.796 6.796v6.934a6.77 6.77 0 01-.676 2.959z"/><path fill="none" stroke="var(--color1, #fff)" stroke-linecap="round" stroke-width="2.438" d="M1.524 4.571l22.857 22.857"/></symbol><symbol id="voice" viewBox="0 0 26 32"><path fill="none" stroke="var(--color1, #fff)" stroke-linejoin="round" stroke-linecap="round" stroke-width="2.438" d="M24.088 13.962c0 6.232-5.05 11.282-11.282 11.282S1.524 20.194 1.524 13.962c0-1.988.821-3.296 2.93-3.296 2.362 0 2.582 2.285 2.582 3.368a5.577 5.577 0 005.577 5.577h.385a5.576 5.576 0 005.577-5.577V7.1a5.578 5.578 0 00-5.577-5.577h-.385A5.578 5.578 0 007.036 7.1M12.806 30.7v-4.282"/></symbol><symbol id="volume" viewBox="0 0 43 32"><path fill="none" stroke="var(--color1, #fff)" stroke-linejoin="round" stroke-linecap="round" stroke-width="2.844" d="M16.777 29.829l-6.696-5.439H6.35c-1.799 0-3.011-1.226-3.256-3.246-.35-2.486-.316-6.976 0-9.512C3.339 9.881 4.551 8.5 6.35 8.5h3.731l6.558-5.346c.574-.486 1.565-.945 2.171-.932 1.277-.037 2.461.889 2.913 2.398.252.965.322 2.087.449 3.128.237 1.891.29 9.863.159 14.473 0 2.168-.108 5.333 2.559 5.333 1.778 0 3.483-1.295 4.344-2.532 1.614-2.322 2.583-5.435 2.583-8.901s-1.103-6.774-2.583-8.903c-1.929-2.774.101-5.441 2.767-5.441 4.097.446 5.789 4.369 6.459 6.723s1.035 4.921 1.035 7.62c0 5.586-1.561 10.604-4.162 14.345"/></symbol></defs></svg>