<svg aria-hidden="true" style="position: absolute; width: 0; height: 0; overflow: hidden;" version="1.1" xmlns="http://www.w3.org/2000/svg" xmlns:xlink="http://www.w3.org/1999/xlink">
<defs>
<symbol id="question" viewBox="0 0 32 32">
<path fill="#509bf5" style="fill: var(--color1, #509bf5)" d="M10.201 10.678c-0.799 0-1.449-0.674-1.28-1.454 0.286-1.314 0.877-2.43 1.772-3.348 1.221-1.251 2.922-1.876 5.104-1.876 2.020 0 3.667 0.591 4.941 1.773 1.285 1.182 1.928 2.668 1.928 4.457 0 2.513-1.129 4.492-3.386 5.938-1.015 0.643-1.712 1.251-2.090 1.824-0.367 0.574-0.551 1.319-0.551 2.237 0 0.618-0.501 1.119-1.119 1.119h-0.299c-0.783 0-1.418-0.635-1.418-1.418v-0.166c-0.011-1.124 0.243-2.1 0.761-2.926 0.529-0.826 1.355-1.595 2.479-2.306 0.951-0.62 1.62-1.239 2.009-1.859 0.4-0.62 0.599-1.383 0.599-2.289 0-1.079-0.367-1.962-1.102-2.65-0.724-0.7-1.68-1.050-2.868-1.050-1.221 0-2.203 0.356-2.949 1.067-0.46 0.445-0.793 0.994-0.999 1.647-0.221 0.7-0.802 1.279-1.535 1.279zM17.045 28.662c-0.41 0.447-0.945 0.671-1.604 0.671s-1.199-0.224-1.62-0.671-0.632-1.021-0.632-1.721c0-0.7 0.211-1.273 0.632-1.721 0.421-0.459 0.961-0.688 1.62-0.688s1.194 0.224 1.604 0.671c0.421 0.447 0.632 1.027 0.632 1.738 0 0.7-0.211 1.274-0.632 1.721z"></path>
<path fill="#fff" style="fill: var(--color2, #fff)" opacity="0.8" d="M10.201 10.678c-0.799 0-1.449-0.674-1.28-1.454 0.286-1.314 0.877-2.43 1.772-3.348 1.221-1.251 2.922-1.876 5.104-1.876 2.020 0 3.667 0.591 4.941 1.773 1.285 1.182 1.928 2.668 1.928 4.457 0 2.513-1.129 4.492-3.386 5.938-1.015 0.643-1.712 1.251-2.090 1.824-0.367 0.574-0.551 1.319-0.551 2.237 0 0.618-0.501 1.119-1.119 1.119h-0.299c-0.783 0-1.418-0.635-1.418-1.418v-0.166c-0.011-1.124 0.243-2.1 0.761-2.926 0.529-0.826 1.355-1.595 2.479-2.306 0.951-0.62 1.62-1.239 2.009-1.859 0.4-0.62 0.599-1.383 0.599-2.289 0-1.079-0.367-1.962-1.102-2.65-0.724-0.7-1.68-1.050-2.868-1.050-1.221 0-2.203 0.356-2.949 1.067-0.46 0.445-0.793 0.994-0.999 1.647-0.221 0.7-0.802 1.279-1.535 1.279zM17.045 28.662c-0.41 0.447-0.945 0.671-1.604 0.671s-1.199-0.224-1.62-0.671-0.632-1.021-0.632-1.721c0-0.7 0.211-1.273 0.632-1.721 0.421-0.459 0.961-0.688 1.62-0.688s1.194 0.224 1.604 0.671c0.421 0.447 0.632 1.027 0.632 1.738 0 0.7-0.211 1.274-0.632 1.721z"></path>
<path fill="none" opacity="0.8" stroke="#509bf5" style="stroke: var(--color1, #509bf5)" stroke-linejoin="miter" stroke-linecap="butt" stroke-miterlimit="4" stroke-width="0.4" d="M10.837 6.016h0c1.174-1.203 2.818-1.816 4.96-1.816 1.978 0 3.574 0.577 4.805 1.719l0.001 0.001c1.243 1.143 1.863 2.575 1.863 4.31 0 2.439-1.089 4.357-3.293 5.769-1.024 0.648-1.748 1.274-2.15 1.883v0l-0.001 0.002c-0.394 0.615-0.582 1.402-0.582 2.345 0 0.507-0.411 0.919-0.919 0.919h-0.299c-0.673 0-1.218-0.545-1.218-1.218v-0.168c-0.011-1.092 0.235-2.028 0.73-2.817 0.509-0.794 1.31-1.544 2.417-2.244h0l0.002-0.001c0.962-0.627 1.658-1.265 2.069-1.919 0.424-0.658 0.631-1.461 0.631-2.396 0-1.129-0.387-2.066-1.164-2.795-0.767-0.742-1.776-1.105-3.006-1.105-1.262 0-2.298 0.369-3.087 1.122v0l-0.001 0.001c-0.485 0.47-0.835 1.048-1.050 1.73-0.204 0.646-0.726 1.139-1.345 1.139-0.696 0-1.222-0.58-1.084-1.212 0.278-1.279 0.852-2.361 1.72-3.25zM16.899 28.525l-0.002 0.002c-0.369 0.402-0.849 0.606-1.457 0.606s-1.094-0.204-1.475-0.608c-0.381-0.405-0.577-0.927-0.577-1.584s0.196-1.179 0.577-1.584l0.002-0.002c0.381-0.415 0.866-0.624 1.473-0.624 0.608 0 1.087 0.204 1.457 0.606l0.002 0.002c0.381 0.405 0.577 0.932 0.577 1.601 0 0.657-0.196 1.179-0.577 1.584z"></path>
</symbol>
<symbol id="smile" viewBox="0 0 32 32">
<path fill="none" stroke="#509bf5" style="stroke: var(--color1, #509bf5)" stroke-linejoin="miter" stroke-linecap="round" stroke-miterlimit="4" stroke-width="1.9692" d="M26.661 22.154c1.047-1.81 1.647-3.912 1.647-6.154 0-6.797-5.51-12.308-12.308-12.308s-12.308 5.51-12.308 12.308c0 6.797 5.51 12.308 12.308 12.308 2.477 0 4.783-0.732 6.713-1.99"></path>
<path fill="none" stroke="#509bf5" style="stroke: var(--color1, #509bf5)" stroke-linejoin="miter" stroke-linecap="round" stroke-miterlimit="4" stroke-width="1.9692" d="M11.524 19.357c1.021 1.359 2.646 2.238 4.476 2.238s3.455-0.879 4.476-2.238"></path>
<path fill="none" stroke="#509bf5" style="stroke: var(--color1, #509bf5)" stroke-linejoin="miter" stroke-linecap="round" stroke-miterlimit="4" stroke-width="1.9692" d="M13.762 13.762c0-1.236-1.002-2.238-2.238-2.238s-2.238 1.002-2.238 2.238"></path>
<path fill="none" stroke="#509bf5" style="stroke: var(--color1, #509bf5)" stroke-linejoin="miter" stroke-linecap="round" stroke-miterlimit="4" stroke-width="1.9692" d="M22.713 13.762c0-1.236-1.002-2.238-2.238-2.238s-2.238 1.002-2.238 2.238"></path>
<path fill="none" opacity="0.8" stroke="#fff" style="stroke: var(--color2, #fff)" stroke-linejoin="miter" stroke-linecap="round" stroke-miterlimit="4" stroke-width="1.2308" d="M26.661 22.154c1.047-1.81 1.647-3.912 1.647-6.154 0-6.797-5.51-12.308-12.308-12.308s-12.308 5.51-12.308 12.308c0 6.797 5.51 12.308 12.308 12.308 2.477 0 4.783-0.732 6.713-1.99"></path>
<path fill="none" opacity="0.8" stroke="#fff" style="stroke: var(--color2, #fff)" stroke-linejoin="miter" stroke-linecap="round" stroke-miterlimit="4" stroke-width="1.2308" d="M11.524 19.357c1.021 1.359 2.646 2.238 4.476 2.238s3.455-0.879 4.476-2.238"></path>
<path fill="none" opacity="0.8" stroke="#fff" style="stroke: var(--color2, #fff)" stroke-linejoin="miter" stroke-linecap="round" stroke-miterlimit="4" stroke-width="1.2308" d="M13.762 13.762c0-1.236-1.002-2.238-2.238-2.238s-2.238 1.002-2.238 2.238"></path>
<path fill="none" opacity="0.8" stroke="#fff" style="stroke: var(--color2, #fff)" stroke-linejoin="miter" stroke-linecap="round" stroke-miterlimit="4" stroke-width="1.2308" d="M22.713 13.762c0-1.236-1.002-2.238-2.238-2.238s-2.238 1.002-2.238 2.238"></path>
</symbol>
<symbol id="video" viewBox="0 0 33 32">
<path fill="none" stroke="#509bf5" style="stroke: var(--color1, #509bf5)" stroke-linejoin="round" stroke-linecap="round" stroke-miterlimit="4" stroke-width="2.1333" d="M21.46 9.666c-0.571-1.813-2.184-2.999-4.478-2.999h-8.275c-2.908 0-4.707 1.891-4.707 4.547v9.28c0 2.657 1.799 4.535 4.692 4.535h8.289c2.896 0 4.707-1.877 4.707-4.535v0c0-3.666 1.645-7.138 4.481-9.46l0.981-0.803c0.867-0.713 2.183-0.093 2.183 1.036v9.163c0 1.131-1.316 1.748-2.183 1.036l-1.275-1.044"></path>
<path fill="none" opacity="0.8" stroke="#fff" style="stroke: var(--color2, #fff)" stroke-linejoin="round" stroke-linecap="round" stroke-miterlimit="4" stroke-width="1.3333" d="M21.46 9.666c-0.571-1.813-2.184-2.999-4.478-2.999h-8.275c-2.908 0-4.707 1.891-4.707 4.547v9.28c0 2.657 1.799 4.535 4.692 4.535h8.289c2.896 0 4.707-1.877 4.707-4.535v0c0-3.666 1.645-7.138 4.481-9.46l0.981-0.803c0.867-0.713 2.183-0.093 2.183 1.036v9.163c0 1.131-1.316 1.748-2.183 1.036l-1.275-1.044"></path>
</symbol>
<symbol id="add-user" viewBox="0 0 33 32">
<path fill="none" stroke="#509bf5" style="stroke: var(--color1, #509bf5)" stroke-linejoin="round" stroke-linecap="round" stroke-miterlimit="4" stroke-width="2.1333" d="M9.333 20.446c-3.121 0.411-5.333 1.44-5.333 3.647 0 3.103 4.349 3.907 9.503 3.907 5.125 0 9.503-0.776 9.503-3.879 0-1.722-1.339-2.736-3.412-3.297-4.26-1.154-9.313-4.643-11.121-7.286-0.669-0.978-1.060-2.165-1.060-3.448 0-3.381 2.711-6.091 6.091-6.091 3.381 0 6.091 2.709 6.091 6.091 0 2.219-1.168 4.149-2.927 5.214"></path>
<path fill="none" stroke="#509bf5" style="stroke: var(--color1, #509bf5)" stroke-linejoin="round" stroke-linecap="round" stroke-miterlimit="4" stroke-width="2.1333" d="M25.938 11.892v5.347"></path>
<path fill="none" stroke="#509bf5" style="stroke: var(--color1, #509bf5)" stroke-linejoin="round" stroke-linecap="round" stroke-miterlimit="4" stroke-width="2.1333" d="M28.666 14.565h-5.453"></path>
<path fill="none" opacity="0.8" stroke="#fff" style="stroke: var(--color2, #fff)" stroke-linejoin="round" stroke-linecap="round" stroke-miterlimit="4" stroke-width="1.3333" d="M9.333 20.446c-3.121 0.411-5.333 1.44-5.333 3.647 0 3.103 4.349 3.907 9.503 3.907 5.125 0 9.503-0.776 9.503-3.879 0-1.722-1.339-2.736-3.412-3.297-4.26-1.154-9.313-4.643-11.121-7.286-0.669-0.978-1.060-2.165-1.060-3.448 0-3.381 2.711-6.091 6.091-6.091 3.381 0 6.091 2.709 6.091 6.091 0 2.219-1.168 4.149-2.927 5.214"></path>
<path fill="none" opacity="0.8" stroke="#fff" style="stroke: var(--color2, #fff)" stroke-linejoin="round" stroke-linecap="round" stroke-miterlimit="4" stroke-width="1.3333" d="M25.938 11.892v5.347"></path>
<path fill="none" opacity="0.8" stroke="#fff" style="stroke: var(--color2, #fff)" stroke-linejoin="round" stroke-linecap="round" stroke-miterlimit="4" stroke-width="1.3333" d="M28.666 14.565h-5.453"></path>
</symbol>
<symbol id="camera" viewBox="0 0 33 32">
<path fill="none" stroke="#509bf5" style="stroke: var(--color1, #509bf5)" stroke-linejoin="round" stroke-linecap="round" stroke-miterlimit="4" stroke-width="2.1333" d="M4 22.544c0 2.659 2.156 4.816 4.817 4.816h15.033c2.66 0 4.816-2.157 4.816-4.816v-7.915c0-2.66-2.156-4.816-4.816-4.816-0.497 0-0.948-0.287-1.16-0.735-0.383-0.811-0.869-1.847-1.157-2.411-0.425-0.839-1.115-1.327-2.069-1.333-0.016-0.001-6.245-0.001-6.261 0-0.955 0.007-1.643 0.495-2.069 1.333-0.287 0.564-0.773 1.6-1.156 2.411-0.212 0.448-0.664 0.735-1.16 0.735-2.661 0-4.817 2.156-4.817 4.816s2.107 3.701 4.334 3.704c2.23 0.003 3.333-2 4.346-3.704 0.738-1.244 2.103-2.094 3.658-2.092 2.336 0.003 4.237 1.911 4.233 4.252-0.004 2.332-1.907 4.236-4.236 4.239"></path>
<path fill="none" opacity="0.8" stroke="#fff" style="stroke: var(--color2, #fff)" stroke-linejoin="round" stroke-linecap="round" stroke-miterlimit="4" stroke-width="1.3333" d="M4 22.544c0 2.659 2.156 4.816 4.817 4.816h15.033c2.66 0 4.816-2.157 4.816-4.816v-7.915c0-2.66-2.156-4.816-4.816-4.816-0.497 0-0.948-0.287-1.16-0.735-0.383-0.811-0.869-1.847-1.157-2.411-0.425-0.839-1.115-1.327-2.069-1.333-0.016-0.001-6.245-0.001-6.261 0-0.955 0.007-1.643 0.495-2.069 1.333-0.287 0.564-0.773 1.6-1.156 2.411-0.212 0.448-0.664 0.735-1.16 0.735-2.661 0-4.817 2.156-4.817 4.816s2.107 3.701 4.334 3.704c2.23 0.003 3.333-2 4.346-3.704 0.738-1.244 2.103-2.094 3.658-2.092 2.336 0.003 4.237 1.911 4.233 4.252-0.004 2.332-1.907 4.236-4.236 4.239"></path>
</symbol>
<symbol id="mail" viewBox="0 0 35 32">
<path fill="none" stroke="#509bf5" style="stroke: var(--color1, #509bf5)" stroke-linejoin="round" stroke-linecap="round" stroke-miterlimit="4" stroke-width="2.1333" d="M4 17.059v3.371c0 3.892 2.624 7.059 6.517 7.059h12.57c1.813-0.020 3.538-0.787 4.774-2.12s1.875-3.118 1.768-4.939v-8.704c0.107-1.82-0.532-3.605-1.768-4.939s-2.961-2.1-4.774-2.12h-14.882c-3.281 0-4.726 4.135-2.16 6.178l3.227 2.57 5.736 4.579c1.076 0.844 2.585 0.844 3.661 0l5.687-4.579"></path>
<path fill="none" opacity="0.8" stroke="#fff" style="stroke: var(--color2, #fff)" stroke-linejoin="round" stroke-linecap="round" stroke-miterlimit="4" stroke-width="1.3333" d="M4 17.059v3.371c0 3.892 2.624 7.059 6.517 7.059h12.57c1.813-0.020 3.538-0.787 4.774-2.12s1.875-3.118 1.768-4.939v-8.704c0.107-1.82-0.532-3.605-1.768-4.939s-2.961-2.1-4.774-2.12h-14.882c-3.281 0-4.726 4.135-2.16 6.178l3.227 2.57 5.736 4.579c1.076 0.844 2.585 0.844 3.661 0l5.687-4.579"></path>
</symbol>
<symbol id="mic" viewBox="0 0 31 32">
<path fill="none" stroke="#509bf5" style="stroke: var(--color1, #509bf5)" stroke-linejoin="round" stroke-linecap="round" stroke-miterlimit="4" stroke-width="2.0480" d="M25.354 14.288c0 5.235-4.242 9.477-9.477 9.477s-9.477-4.242-9.477-9.477c0-1.67 0.689-2.768 2.462-2.768 1.984 0 2.169 1.919 2.169 2.829 0 2.588 2.098 4.685 4.685 4.685h0.323c2.587 0 4.685-2.097 4.685-4.685v-5.825c0-2.587-2.098-4.685-4.685-4.685h-0.323c-2.587 0-4.685 2.098-4.685 4.685"></path>
<path fill="none" stroke="#509bf5" style="stroke: var(--color1, #509bf5)" stroke-linejoin="round" stroke-linecap="round" stroke-miterlimit="4" stroke-width="2.0480" d="M15.877 28.348v-3.597"></path>
<path fill="none" opacity="0.8" stroke="#fff" style="stroke: var(--color2, #fff)" stroke-linejoin="round" stroke-linecap="round" stroke-miterlimit="4" stroke-width="1.28" d="M25.354 14.288c0 5.235-4.242 9.477-9.477 9.477s-9.477-4.242-9.477-9.477c0-1.67 0.689-2.768 2.462-2.768 1.984 0 2.169 1.919 2.169 2.829 0 2.588 2.098 4.685 4.685 4.685h0.323c2.587 0 4.685-2.097 4.685-4.685v-5.825c0-2.587-2.098-4.685-4.685-4.685h-0.323c-2.587 0-4.685 2.098-4.685 4.685"></path>
<path fill="none" opacity="0.8" stroke="#fff" style="stroke: var(--color2, #fff)" stroke-linejoin="round" stroke-linecap="round" stroke-miterlimit="4" stroke-width="1.28" d="M15.877 28.348v-3.597"></path>
</symbol>
<symbol id="notify" viewBox="0 0 30 32">
<path fill="none" stroke="#509bf5" style="stroke: var(--color1, #509bf5)" stroke-linejoin="round" stroke-linecap="round" stroke-miterlimit="4" stroke-width="1.9692" d="M17.683 26.895c-0.187 0.233-0.404 0.442-0.645 0.621-0.783 0.607-1.78 0.883-2.771 0.766s-1.893-0.616-2.507-1.387c-0.345-0.433-0.683-1.048-0.683-1.664 0-2.414 2.462-2.111 2.462-2.111 2.383 0.053 4.769-0.048 7.141-0.303 1.341-0.122 2.59-0.722 3.511-1.687 0.697-0.825 1.066-1.87 1.039-2.941v-0.258c-0.036-0.794-0.292-1.564-0.74-2.226-0.739-0.809-1.246-1.795-1.469-2.859-0.060-0.82 0.012-1.652-0.060-2.473-0.382-3.949-4.287-6.679-8.144-6.679h-0.095c-3.857 0-7.762 2.73-8.132 6.679-0.072 0.82-0.072 1.652-0.072 2.473-0.22 1.061-0.728 2.045-1.469 2.848-0.445 0.668-0.701 1.441-0.74 2.238v0.27c-0.023 1.065 0.341 2.104 1.027 2.93 0.576 0.599 1.278 1.057 2.049 1.349"></path>
<path fill="none" opacity="0.8" stroke="#fff" style="stroke: var(--color2, #fff)" stroke-linejoin="round" stroke-linecap="round" stroke-miterlimit="4" stroke-width="1.2308" d="M17.683 26.895c-0.187 0.233-0.404 0.442-0.645 0.621-0.783 0.607-1.78 0.883-2.771 0.766s-1.893-0.616-2.507-1.387c-0.345-0.433-0.683-1.048-0.683-1.664 0-2.414 2.462-2.111 2.462-2.111 2.383 0.053 4.769-0.048 7.141-0.303 1.341-0.122 2.59-0.722 3.511-1.687 0.697-0.825 1.066-1.87 1.039-2.941v-0.258c-0.036-0.794-0.292-1.564-0.74-2.226-0.739-0.809-1.246-1.795-1.469-2.859-0.060-0.82 0.012-1.652-0.060-2.473-0.382-3.949-4.287-6.679-8.144-6.679h-0.095c-3.857 0-7.762 2.73-8.132 6.679-0.072 0.82-0.072 1.652-0.072 2.473-0.22 1.061-0.728 2.045-1.469 2.848-0.445 0.668-0.701 1.441-0.74 2.238v0.27c-0.023 1.065 0.341 2.104 1.027 2.93 0.576 0.599 1.278 1.057 2.049 1.349"></path>
</symbol>
<symbol id="settings" viewBox="0 0 30 32">
<path fill="none" stroke="#509bf5" style="stroke: var(--color1, #509bf5)" stroke-linejoin="round" stroke-linecap="round" stroke-miterlimit="4" stroke-width="1.9692" d="M5.206 17.903c-1.119 0.648-1.502 2.079-0.856 3.2l0.777 1.341c0.304 0.548 0.813 0.952 1.416 1.123s1.249 0.095 1.795-0.211c0.537-0.313 1.177-0.399 1.778-0.239s1.113 0.555 1.421 1.095c0.203 0.341 0.311 0.73 0.315 1.127 0 1.3 1.054 2.354 2.354 2.354h1.543c1.296 0 2.348-1.047 2.354-2.343-0.003-0.625 0.244-1.226 0.686-1.668s1.043-0.689 1.668-0.686c0.396 0.011 0.783 0.119 1.127 0.315 1.123 0.647 2.559 0.265 3.211-0.856l0.811-1.352c0.314-0.539 0.4-1.181 0.239-1.783s-0.555-1.116-1.096-1.427-0.935-0.825-1.096-1.427-0.074-1.244 0.239-1.783c0.204-0.357 0.5-0.652 0.856-0.856 1.114-0.652 1.496-2.079 0.856-3.199v-0.011l-0.766-1.329c-0.648-1.125-2.084-1.513-3.211-0.867-0.536 0.316-1.176 0.405-1.778 0.249s-1.118-0.546-1.433-1.083c-0.202-0.341-0.311-0.73-0.315-1.127 0.018-0.636-0.222-1.252-0.665-1.709s-1.053-0.714-1.689-0.713h-1.543c-0.623 0-1.221 0.248-1.661 0.69s-0.685 1.041-0.682 1.664c-0.018 1.287-1.067 2.321-2.354 2.321-0.397-0.004-0.785-0.113-1.127-0.315-1.126-0.645-2.563-0.257-3.211 0.867l-0.822 1.352c-0.647 1.123-0.265 2.559 0.856 3.211s2.283 0.189 3.177-0.705c1.463-1.463 4.009 0 3.481 1.854-0.081 0.283-0.124 0.582-0.124 0.891 0 1.792 1.453 3.244 3.245 3.244s3.245-1.453 3.245-3.244c0-1.437-0.935-2.656-2.229-3.082"></path>
<path fill="none" opacity="0.8" stroke="#fff" style="stroke: var(--color2, #fff)" stroke-linejoin="round" stroke-linecap="round" stroke-miterlimit="4" stroke-width="1.2308" d="M5.206 17.903c-1.119 0.648-1.502 2.079-0.856 3.2l0.777 1.341c0.304 0.548 0.813 0.952 1.416 1.123s1.249 0.095 1.795-0.211c0.537-0.313 1.177-0.399 1.778-0.239s1.113 0.555 1.421 1.095c0.203 0.341 0.311 0.73 0.315 1.127 0 1.3 1.054 2.354 2.354 2.354h1.543c1.296 0 2.348-1.047 2.354-2.343-0.003-0.625 0.244-1.226 0.686-1.668s1.043-0.689 1.668-0.686c0.396 0.011 0.783 0.119 1.127 0.315 1.123 0.647 2.559 0.265 3.211-0.856l0.811-1.352c0.314-0.539 0.4-1.181 0.239-1.783s-0.555-1.116-1.096-1.427-0.935-0.825-1.096-1.427-0.074-1.244 0.239-1.783c0.204-0.357 0.5-0.652 0.856-0.856 1.114-0.652 1.496-2.079 0.856-3.199v-0.011l-0.766-1.329c-0.648-1.125-2.084-1.513-3.211-0.867-0.536 0.316-1.176 0.405-1.778 0.249s-1.118-0.546-1.433-1.083c-0.202-0.341-0.311-0.73-0.315-1.127 0.018-0.636-0.222-1.252-0.665-1.709s-1.053-0.714-1.689-0.713h-1.543c-0.623 0-1.221 0.248-1.661 0.69s-0.685 1.041-0.682 1.664c-0.018 1.287-1.067 2.321-2.354 2.321-0.397-0.004-0.785-0.113-1.127-0.315-1.126-0.645-2.563-0.257-3.211 0.867l-0.822 1.352c-0.647 1.123-0.265 2.559 0.856 3.211s2.283 0.189 3.177-0.705c1.463-1.463 4.009 0 3.481 1.854-0.081 0.283-0.124 0.582-0.124 0.891 0 1.792 1.453 3.244 3.245 3.244s3.245-1.453 3.245-3.244c0-1.437-0.935-2.656-2.229-3.082"></path>
</symbol>
<symbol id="voice" viewBox="0 0 37 32">
<path fill="none" stroke="#509bf5" style="stroke: var(--color1, #509bf5)" stroke-linejoin="round" stroke-linecap="round" stroke-miterlimit="4" stroke-width="2.1333" d="M15.249 26.372l-5.022-4.079h-2.798c-1.349 0-2.258-0.919-2.442-2.434-0.262-1.864-0.237-5.232 0-7.134 0.184-1.314 1.093-2.349 2.442-2.349h2.798l4.918-4.009c0.431-0.365 1.174-0.708 1.628-0.699 0.958-0.028 1.846 0.667 2.185 1.798 0.189 0.724 0.241 1.565 0.337 2.346 0.177 1.418 0.217 7.397 0.119 10.854 0 1.626-0.081 4 1.919 4 1.333 0 2.613-0.971 3.258-1.899 1.211-1.741 1.937-4.076 1.937-6.676s-0.827-5.081-1.937-6.677c-1.447-2.081 0.075-4.081 2.075-4.081 3.073 0.334 4.342 3.277 4.844 5.042s0.776 3.691 0.776 5.715c0 4.189-1.171 7.953-3.121 10.759"></path>
<path fill="none" opacity="0.8" stroke="#fff" style="stroke: var(--color2, #fff)" stroke-linejoin="round" stroke-linecap="round" stroke-miterlimit="4" stroke-width="1.3333" d="M15.249 26.372l-5.022-4.079h-2.798c-1.349 0-2.258-0.919-2.442-2.434-0.262-1.864-0.237-5.232 0-7.134 0.184-1.314 1.093-2.349 2.442-2.349h2.798l4.918-4.009c0.431-0.365 1.174-0.708 1.628-0.699 0.958-0.028 1.846 0.667 2.185 1.798 0.189 0.724 0.241 1.565 0.337 2.346 0.177 1.418 0.217 7.397 0.119 10.854 0 1.626-0.081 4 1.919 4 1.333 0 2.613-0.971 3.258-1.899 1.211-1.741 1.937-4.076 1.937-6.676s-0.827-5.081-1.937-6.677c-1.447-2.081 0.075-4.081 2.075-4.081 3.073 0.334 4.342 3.277 4.844 5.042s0.776 3.691 0.776 5.715c0 4.189-1.171 7.953-3.121 10.759"></path>
</symbol>
</defs>
</svg>
